<mxfile host="Electron" modified="2024-03-13T06:40:13.957Z" agent="Mozilla/5.0 (Macintosh; Intel Mac OS X 10_15_7) AppleWebKit/537.36 (KHTML, like Gecko) draw.io/22.0.3 Chrome/114.0.5735.289 Electron/25.8.4 Safari/537.36" etag="F1XFuwJm8KlKLBA8GMle" version="22.0.3" type="device">
  <diagram name="Seite-1" id="aazizDQBxM_vWIQerCb4">
    <mxGraphModel dx="954" dy="622" grid="1" gridSize="10" guides="1" tooltips="1" connect="1" arrows="1" fold="1" page="1" pageScale="1" pageWidth="827" pageHeight="1169" math="0" shadow="0">
      <root>
        <mxCell id="0" />
        <mxCell id="1" parent="0" />
        <mxCell id="E4aPQlbbpQYUg11yfjRI-21" style="edgeStyle=orthogonalEdgeStyle;orthogonalLoop=1;jettySize=auto;html=1;exitX=1;exitY=0;exitDx=0;exitDy=0;entryX=0.5;entryY=1;entryDx=0;entryDy=0;curved=1;" edge="1" parent="1" source="E4aPQlbbpQYUg11yfjRI-10" target="E4aPQlbbpQYUg11yfjRI-20">
          <mxGeometry relative="1" as="geometry" />
        </mxCell>
        <mxCell id="E4aPQlbbpQYUg11yfjRI-39" value="Nachbestellung" style="edgeLabel;html=1;align=center;verticalAlign=middle;resizable=0;points=[];" vertex="1" connectable="0" parent="E4aPQlbbpQYUg11yfjRI-21">
          <mxGeometry x="-0.1306" y="11" relative="1" as="geometry">
            <mxPoint as="offset" />
          </mxGeometry>
        </mxCell>
        <mxCell id="E4aPQlbbpQYUg11yfjRI-30" style="edgeStyle=orthogonalEdgeStyle;orthogonalLoop=1;jettySize=auto;html=1;curved=1;" edge="1" parent="1" source="E4aPQlbbpQYUg11yfjRI-10" target="E4aPQlbbpQYUg11yfjRI-29">
          <mxGeometry relative="1" as="geometry" />
        </mxCell>
        <mxCell id="E4aPQlbbpQYUg11yfjRI-32" value="Geschäftsvorfälle und Fehler" style="edgeLabel;html=1;align=center;verticalAlign=middle;resizable=0;points=[];" vertex="1" connectable="0" parent="E4aPQlbbpQYUg11yfjRI-30">
          <mxGeometry relative="1" as="geometry">
            <mxPoint as="offset" />
          </mxGeometry>
        </mxCell>
        <mxCell id="E4aPQlbbpQYUg11yfjRI-46" style="edgeStyle=orthogonalEdgeStyle;orthogonalLoop=1;jettySize=auto;html=1;exitX=0;exitY=0;exitDx=0;exitDy=0;entryX=1;entryY=0.5;entryDx=0;entryDy=0;curved=1;" edge="1" parent="1" source="E4aPQlbbpQYUg11yfjRI-10" target="E4aPQlbbpQYUg11yfjRI-45">
          <mxGeometry relative="1" as="geometry" />
        </mxCell>
        <mxCell id="E4aPQlbbpQYUg11yfjRI-47" value="Rechnung" style="edgeLabel;html=1;align=center;verticalAlign=middle;resizable=0;points=[];" vertex="1" connectable="0" parent="E4aPQlbbpQYUg11yfjRI-46">
          <mxGeometry x="0.0998" relative="1" as="geometry">
            <mxPoint as="offset" />
          </mxGeometry>
        </mxCell>
        <mxCell id="E4aPQlbbpQYUg11yfjRI-48" style="edgeStyle=orthogonalEdgeStyle;orthogonalLoop=1;jettySize=auto;html=1;exitX=0;exitY=0;exitDx=0;exitDy=0;entryX=0.75;entryY=1;entryDx=0;entryDy=0;curved=1;" edge="1" parent="1" source="E4aPQlbbpQYUg11yfjRI-10" target="E4aPQlbbpQYUg11yfjRI-45">
          <mxGeometry relative="1" as="geometry" />
        </mxCell>
        <mxCell id="E4aPQlbbpQYUg11yfjRI-49" value="Bonitätsabfrage" style="edgeLabel;html=1;align=center;verticalAlign=middle;resizable=0;points=[];" vertex="1" connectable="0" parent="E4aPQlbbpQYUg11yfjRI-48">
          <mxGeometry x="0.2777" y="-25" relative="1" as="geometry">
            <mxPoint as="offset" />
          </mxGeometry>
        </mxCell>
        <mxCell id="E4aPQlbbpQYUg11yfjRI-10" value="lokales Filial-&lt;br&gt;Bestellsystem" style="ellipse;whiteSpace=wrap;html=1;" vertex="1" parent="1">
          <mxGeometry x="354" y="200" width="120" height="80" as="geometry" />
        </mxCell>
        <mxCell id="E4aPQlbbpQYUg11yfjRI-35" style="edgeStyle=orthogonalEdgeStyle;rounded=0;orthogonalLoop=1;jettySize=auto;html=1;" edge="1" parent="1" source="E4aPQlbbpQYUg11yfjRI-11" target="E4aPQlbbpQYUg11yfjRI-12">
          <mxGeometry relative="1" as="geometry" />
        </mxCell>
        <mxCell id="E4aPQlbbpQYUg11yfjRI-36" value="Bestellung" style="edgeLabel;html=1;align=center;verticalAlign=middle;resizable=0;points=[];" vertex="1" connectable="0" parent="E4aPQlbbpQYUg11yfjRI-35">
          <mxGeometry x="-0.25" relative="1" as="geometry">
            <mxPoint as="offset" />
          </mxGeometry>
        </mxCell>
        <mxCell id="E4aPQlbbpQYUg11yfjRI-11" value="Kunde" style="shape=umlActor;verticalLabelPosition=bottom;verticalAlign=top;html=1;outlineConnect=0;" vertex="1" parent="1">
          <mxGeometry x="130" y="400" width="30" height="60" as="geometry" />
        </mxCell>
        <mxCell id="E4aPQlbbpQYUg11yfjRI-15" style="edgeStyle=orthogonalEdgeStyle;orthogonalLoop=1;jettySize=auto;html=1;curved=1;exitX=0.5;exitY=0.5;exitDx=0;exitDy=0;exitPerimeter=0;" edge="1" parent="1" source="E4aPQlbbpQYUg11yfjRI-12" target="E4aPQlbbpQYUg11yfjRI-10">
          <mxGeometry relative="1" as="geometry">
            <mxPoint x="279" y="450" as="sourcePoint" />
            <mxPoint x="408" y="340" as="targetPoint" />
            <Array as="points">
              <mxPoint x="380" y="430" />
              <mxPoint x="380" y="360" />
              <mxPoint x="390" y="360" />
            </Array>
          </mxGeometry>
        </mxCell>
        <mxCell id="E4aPQlbbpQYUg11yfjRI-17" value="Bestand abfragen" style="edgeLabel;html=1;align=center;verticalAlign=middle;resizable=0;points=[];" vertex="1" connectable="0" parent="E4aPQlbbpQYUg11yfjRI-15">
          <mxGeometry x="-0.2273" y="-2" relative="1" as="geometry">
            <mxPoint x="8" y="-65" as="offset" />
          </mxGeometry>
        </mxCell>
        <mxCell id="E4aPQlbbpQYUg11yfjRI-18" style="edgeStyle=orthogonalEdgeStyle;orthogonalLoop=1;jettySize=auto;html=1;entryX=0;entryY=1;entryDx=0;entryDy=0;curved=1;exitX=0.5;exitY=0.5;exitDx=0;exitDy=0;exitPerimeter=0;" edge="1" parent="1" source="E4aPQlbbpQYUg11yfjRI-12" target="E4aPQlbbpQYUg11yfjRI-10">
          <mxGeometry relative="1" as="geometry">
            <Array as="points">
              <mxPoint x="330" y="430" />
              <mxPoint x="330" y="268" />
            </Array>
          </mxGeometry>
        </mxCell>
        <mxCell id="E4aPQlbbpQYUg11yfjRI-19" value="Bestellung aufgeben, &lt;br&gt;abfragen und ändern &lt;br&gt;oder annulieren" style="edgeLabel;html=1;align=center;verticalAlign=middle;resizable=0;points=[];" vertex="1" connectable="0" parent="E4aPQlbbpQYUg11yfjRI-18">
          <mxGeometry x="0.0834" y="-6" relative="1" as="geometry">
            <mxPoint x="-24" y="-20" as="offset" />
          </mxGeometry>
        </mxCell>
        <mxCell id="E4aPQlbbpQYUg11yfjRI-12" value="Mitarbeiter" style="shape=umlActor;verticalLabelPosition=bottom;verticalAlign=top;html=1;outlineConnect=0;" vertex="1" parent="1">
          <mxGeometry x="270" y="400" width="30" height="60" as="geometry" />
        </mxCell>
        <mxCell id="E4aPQlbbpQYUg11yfjRI-40" style="edgeStyle=orthogonalEdgeStyle;orthogonalLoop=1;jettySize=auto;html=1;entryX=1;entryY=0;entryDx=0;entryDy=0;curved=1;" edge="1" parent="1" source="E4aPQlbbpQYUg11yfjRI-20" target="E4aPQlbbpQYUg11yfjRI-10">
          <mxGeometry relative="1" as="geometry" />
        </mxCell>
        <mxCell id="E4aPQlbbpQYUg11yfjRI-42" value="Nachlieferung" style="edgeLabel;html=1;align=center;verticalAlign=middle;resizable=0;points=[];" vertex="1" connectable="0" parent="E4aPQlbbpQYUg11yfjRI-40">
          <mxGeometry x="-0.3139" y="22" relative="1" as="geometry">
            <mxPoint as="offset" />
          </mxGeometry>
        </mxCell>
        <mxCell id="E4aPQlbbpQYUg11yfjRI-20" value="Zentrales Lager" style="ellipse;whiteSpace=wrap;html=1;" vertex="1" parent="1">
          <mxGeometry x="550" y="70" width="120" height="80" as="geometry" />
        </mxCell>
        <mxCell id="E4aPQlbbpQYUg11yfjRI-23" style="edgeStyle=orthogonalEdgeStyle;orthogonalLoop=1;jettySize=auto;html=1;entryX=1;entryY=1;entryDx=0;entryDy=0;curved=1;exitX=0.5;exitY=0;exitDx=0;exitDy=0;exitPerimeter=0;" edge="1" parent="1" source="E4aPQlbbpQYUg11yfjRI-22" target="E4aPQlbbpQYUg11yfjRI-10">
          <mxGeometry relative="1" as="geometry" />
        </mxCell>
        <mxCell id="E4aPQlbbpQYUg11yfjRI-24" value="&amp;nbsp;aktuellen Bestellungen, &lt;br&gt;Nachbestellungen und &lt;br&gt;Lieferungen einsehen" style="edgeLabel;html=1;align=center;verticalAlign=middle;resizable=0;points=[];" vertex="1" connectable="0" parent="E4aPQlbbpQYUg11yfjRI-23">
          <mxGeometry x="-0.1792" y="3" relative="1" as="geometry">
            <mxPoint as="offset" />
          </mxGeometry>
        </mxCell>
        <mxCell id="E4aPQlbbpQYUg11yfjRI-33" style="edgeStyle=orthogonalEdgeStyle;orthogonalLoop=1;jettySize=auto;html=1;entryX=0.5;entryY=1;entryDx=0;entryDy=0;curved=1;" edge="1" parent="1" source="E4aPQlbbpQYUg11yfjRI-22" target="E4aPQlbbpQYUg11yfjRI-29">
          <mxGeometry relative="1" as="geometry" />
        </mxCell>
        <mxCell id="E4aPQlbbpQYUg11yfjRI-34" value="fachlichen Vorgänge &lt;br&gt;im System überwachen" style="edgeLabel;html=1;align=center;verticalAlign=middle;resizable=0;points=[];" vertex="1" connectable="0" parent="E4aPQlbbpQYUg11yfjRI-33">
          <mxGeometry x="-0.1133" y="29" relative="1" as="geometry">
            <mxPoint as="offset" />
          </mxGeometry>
        </mxCell>
        <mxCell id="E4aPQlbbpQYUg11yfjRI-22" value="Filialleiter" style="shape=umlActor;verticalLabelPosition=bottom;verticalAlign=top;html=1;outlineConnect=0;" vertex="1" parent="1">
          <mxGeometry x="500" y="400" width="30" height="60" as="geometry" />
        </mxCell>
        <mxCell id="E4aPQlbbpQYUg11yfjRI-26" style="edgeStyle=orthogonalEdgeStyle;orthogonalLoop=1;jettySize=auto;html=1;curved=1;" edge="1" parent="1" source="E4aPQlbbpQYUg11yfjRI-25" target="E4aPQlbbpQYUg11yfjRI-10">
          <mxGeometry relative="1" as="geometry" />
        </mxCell>
        <mxCell id="E4aPQlbbpQYUg11yfjRI-27" value="angelieferte Artikel &lt;br&gt;eintragen" style="edgeLabel;html=1;align=center;verticalAlign=middle;resizable=0;points=[];" vertex="1" connectable="0" parent="E4aPQlbbpQYUg11yfjRI-26">
          <mxGeometry x="0.2336" y="-12" relative="1" as="geometry">
            <mxPoint y="12" as="offset" />
          </mxGeometry>
        </mxCell>
        <mxCell id="E4aPQlbbpQYUg11yfjRI-25" value="&lt;meta charset=&quot;utf-8&quot;&gt;Datentypist" style="shape=umlActor;verticalLabelPosition=bottom;verticalAlign=top;html=1;outlineConnect=0;" vertex="1" parent="1">
          <mxGeometry x="300" y="40" width="30" height="60" as="geometry" />
        </mxCell>
        <mxCell id="E4aPQlbbpQYUg11yfjRI-29" value="Logging" style="rounded=0;whiteSpace=wrap;html=1;" vertex="1" parent="1">
          <mxGeometry x="650" y="250" width="120" height="60" as="geometry" />
        </mxCell>
        <mxCell id="E4aPQlbbpQYUg11yfjRI-37" style="edgeStyle=orthogonalEdgeStyle;orthogonalLoop=1;jettySize=auto;html=1;entryX=0.5;entryY=0;entryDx=0;entryDy=0;entryPerimeter=0;curved=1;" edge="1" parent="1" source="E4aPQlbbpQYUg11yfjRI-10" target="E4aPQlbbpQYUg11yfjRI-11">
          <mxGeometry relative="1" as="geometry" />
        </mxCell>
        <mxCell id="E4aPQlbbpQYUg11yfjRI-38" value="Artikel Lieferung" style="edgeLabel;html=1;align=center;verticalAlign=middle;resizable=0;points=[];" vertex="1" connectable="0" parent="E4aPQlbbpQYUg11yfjRI-37">
          <mxGeometry x="-0.2195" y="28" relative="1" as="geometry">
            <mxPoint x="30" y="-8" as="offset" />
          </mxGeometry>
        </mxCell>
        <mxCell id="E4aPQlbbpQYUg11yfjRI-43" style="edgeStyle=orthogonalEdgeStyle;orthogonalLoop=1;jettySize=auto;html=1;exitX=0;exitY=0;exitDx=0;exitDy=0;entryX=0.5;entryY=0;entryDx=0;entryDy=0;entryPerimeter=0;curved=1;" edge="1" parent="1" source="E4aPQlbbpQYUg11yfjRI-10" target="E4aPQlbbpQYUg11yfjRI-11">
          <mxGeometry relative="1" as="geometry" />
        </mxCell>
        <mxCell id="E4aPQlbbpQYUg11yfjRI-44" value="Bestellbestätigung" style="edgeLabel;html=1;align=center;verticalAlign=middle;resizable=0;points=[];" vertex="1" connectable="0" parent="E4aPQlbbpQYUg11yfjRI-43">
          <mxGeometry x="-0.4188" y="16" relative="1" as="geometry">
            <mxPoint as="offset" />
          </mxGeometry>
        </mxCell>
        <mxCell id="E4aPQlbbpQYUg11yfjRI-45" value="Buchhaltung" style="rounded=0;whiteSpace=wrap;html=1;" vertex="1" parent="1">
          <mxGeometry x="80" y="80" width="120" height="60" as="geometry" />
        </mxCell>
      </root>
    </mxGraphModel>
  </diagram>
</mxfile>
